<?xml version="1.0" encoding="UTF-8"?>
<!DOCTYPE svg PUBLIC "-//W3C//DTD SVG 1.1//EN" "http://www.w3.org/Graphics/SVG/1.1/DTD/svg11.dtd">
<svg width="292mm" height="159mm" viewBox="0 0 29200 15900" version="1.1" baseProfile="tiny" xmlns="http://www.w3.org/2000/svg" stroke-width="28.222" stroke-linejoin="round" xml:space="preserve">
 <path fill="rgb(255,255,255)" stroke="none" d="M 14625,16114 L 3,16114 3,197 29247,197 29247,16114 14625,16114 Z"/>
 <path fill="none" stroke="rgb(179,179,179)" stroke-linejoin="round" d="M 13419,14168 L 2405,14168 2405,715 24433,715 24433,14168 13419,14168 Z"/>
 <path fill="none" stroke="rgb(179,179,179)" stroke-linejoin="round" d="M 2405,714 L 2405,14167"/>
 <path fill="none" stroke="rgb(179,179,179)" stroke-linejoin="round" d="M 7912,714 L 7912,14167"/>
 <path fill="none" stroke="rgb(179,179,179)" stroke-linejoin="round" d="M 13419,714 L 13419,14167"/>
 <path fill="none" stroke="rgb(179,179,179)" stroke-linejoin="round" d="M 18925,714 L 18925,14167"/>
 <path fill="none" stroke="rgb(179,179,179)" stroke-linejoin="round" d="M 24433,714 L 24433,14167"/>
 <path fill="none" stroke="rgb(179,179,179)" stroke-linejoin="round" d="M 2405,14317 L 2405,14167"/>
 <path fill="none" stroke="rgb(179,179,179)" stroke-linejoin="round" d="M 2405,14317 L 2405,14167"/>
 <path fill="none" stroke="rgb(179,179,179)" stroke-linejoin="round" d="M 7912,14317 L 7912,14167"/>
 <path fill="none" stroke="rgb(179,179,179)" stroke-linejoin="round" d="M 7912,14317 L 7912,14167"/>
 <path fill="none" stroke="rgb(179,179,179)" stroke-linejoin="round" d="M 13419,14317 L 13419,14167"/>
 <path fill="none" stroke="rgb(179,179,179)" stroke-linejoin="round" d="M 13419,14317 L 13419,14167"/>
 <path fill="none" stroke="rgb(179,179,179)" stroke-linejoin="round" d="M 18925,14317 L 18925,14167"/>
 <path fill="none" stroke="rgb(179,179,179)" stroke-linejoin="round" d="M 18925,14317 L 18925,14167"/>
 <path fill="none" stroke="rgb(179,179,179)" stroke-linejoin="round" d="M 24433,14317 L 24433,14167"/>
 <path fill="none" stroke="rgb(179,179,179)" stroke-linejoin="round" d="M 24433,14317 L 24433,14167"/>
 <path fill="none" stroke="rgb(179,179,179)" stroke-linejoin="round" d="M 2405,14167 L 24433,14167"/>
 <path fill="none" stroke="rgb(179,179,179)" stroke-linejoin="round" d="M 2255,14167 L 2405,14167"/>
 <path fill="none" stroke="rgb(179,179,179)" stroke-linejoin="round" d="M 2255,14167 L 2405,14167"/>
 <path fill="none" stroke="rgb(179,179,179)" stroke-linejoin="round" d="M 2255,11924 L 2405,11924"/>
 <path fill="none" stroke="rgb(179,179,179)" stroke-linejoin="round" d="M 2255,11924 L 2405,11924"/>
 <path fill="none" stroke="rgb(179,179,179)" stroke-linejoin="round" d="M 2255,9682 L 2405,9682"/>
 <path fill="none" stroke="rgb(179,179,179)" stroke-linejoin="round" d="M 2255,9682 L 2405,9682"/>
 <path fill="none" stroke="rgb(179,179,179)" stroke-linejoin="round" d="M 2255,7441 L 2405,7441"/>
 <path fill="none" stroke="rgb(179,179,179)" stroke-linejoin="round" d="M 2255,7441 L 2405,7441"/>
 <path fill="none" stroke="rgb(179,179,179)" stroke-linejoin="round" d="M 2255,5198 L 2405,5198"/>
 <path fill="none" stroke="rgb(179,179,179)" stroke-linejoin="round" d="M 2255,5198 L 2405,5198"/>
 <path fill="none" stroke="rgb(179,179,179)" stroke-linejoin="round" d="M 2255,2956 L 2405,2956"/>
 <path fill="none" stroke="rgb(179,179,179)" stroke-linejoin="round" d="M 2255,2956 L 2405,2956"/>
 <path fill="none" stroke="rgb(179,179,179)" stroke-linejoin="round" d="M 2255,714 L 2405,714"/>
 <path fill="none" stroke="rgb(179,179,179)" stroke-linejoin="round" d="M 2255,714 L 2405,714"/>
 <path fill="none" stroke="rgb(179,179,179)" stroke-linejoin="round" d="M 2405,14167 L 2405,714"/>
 <path fill="none" stroke="rgb(0,69,134)" stroke-width="80" stroke-linejoin="round" d="M 2405,13450 L 7912,13525 13419,13567 18925,13588 24433,13548"/>
 <path fill="none" stroke="rgb(255,66,14)" stroke-width="80" stroke-linejoin="round" d="M 2405,11660 L 7912,11864 13419,11954 18925,12006 24433,11562"/>
 <path fill="none" stroke="rgb(255,211,32)" stroke-width="80" stroke-linejoin="round" d="M 2405,13318 L 7912,13400 13419,13436 18925,13442 24433,13396"/>
 <path fill="none" stroke="rgb(87,157,28)" stroke-width="80" stroke-linejoin="round" d="M 2405,11968 L 7912,12233 13419,12316 18925,12322 24433,12291"/>
 <path fill="none" stroke="rgb(126,0,33)" stroke-width="80" stroke-linejoin="round" d="M 2405,2154 L 7912,3051 13419,3737 18925,3880 24433,1650"/>
 <text class="TextShape"><tspan class="TextParagraph" font-family="Liberation Sans, sans-serif" font-size="353px" font-weight="400"><tspan class="TextPosition" x="2312" y="14735"><tspan fill="rgb(0,0,0)" stroke="none">1</tspan></tspan></tspan></text>
 <text class="TextShape"><tspan class="TextParagraph" font-family="Liberation Sans, sans-serif" font-size="353px" font-weight="400"><tspan class="TextPosition" x="7819" y="14735"><tspan fill="rgb(0,0,0)" stroke="none">2</tspan></tspan></tspan></text>
 <text class="TextShape"><tspan class="TextParagraph" font-family="Liberation Sans, sans-serif" font-size="353px" font-weight="400"><tspan class="TextPosition" x="13326" y="14735"><tspan fill="rgb(0,0,0)" stroke="none">4</tspan></tspan></tspan></text>
 <text class="TextShape"><tspan class="TextParagraph" font-family="Liberation Sans, sans-serif" font-size="353px" font-weight="400"><tspan class="TextPosition" x="18833" y="14735"><tspan fill="rgb(0,0,0)" stroke="none">8</tspan></tspan></tspan></text>
 <text class="TextShape"><tspan class="TextParagraph" font-family="Liberation Sans, sans-serif" font-size="353px" font-weight="400"><tspan class="TextPosition" x="24249" y="14735"><tspan fill="rgb(0,0,0)" stroke="none">16</tspan></tspan></tspan></text>
 <text class="TextShape"><tspan class="TextParagraph" font-family="Liberation Sans, sans-serif" font-size="353px" font-weight="400"><tspan class="TextPosition" x="1970" y="14288"><tspan fill="rgb(0,0,0)" stroke="none">0</tspan></tspan></tspan></text>
 <text class="TextShape"><tspan class="TextParagraph" font-family="Liberation Sans, sans-serif" font-size="353px" font-weight="400"><tspan class="TextPosition" x="1785" y="12045"><tspan fill="rgb(0,0,0)" stroke="none">50</tspan></tspan></tspan></text>
 <text class="TextShape"><tspan class="TextParagraph" font-family="Liberation Sans, sans-serif" font-size="353px" font-weight="400"><tspan class="TextPosition" x="1599" y="9803"><tspan fill="rgb(0,0,0)" stroke="none">100</tspan></tspan></tspan></text>
 <text class="TextShape"><tspan class="TextParagraph" font-family="Liberation Sans, sans-serif" font-size="353px" font-weight="400"><tspan class="TextPosition" x="1599" y="7561"><tspan fill="rgb(0,0,0)" stroke="none">150</tspan></tspan></tspan></text>
 <text class="TextShape"><tspan class="TextParagraph" font-family="Liberation Sans, sans-serif" font-size="353px" font-weight="400"><tspan class="TextPosition" x="1599" y="5318"><tspan fill="rgb(0,0,0)" stroke="none">200</tspan></tspan></tspan></text>
 <text class="TextShape"><tspan class="TextParagraph" font-family="Liberation Sans, sans-serif" font-size="353px" font-weight="400"><tspan class="TextPosition" x="1599" y="3076"><tspan fill="rgb(0,0,0)" stroke="none">250</tspan></tspan></tspan></text>
 <text class="TextShape"><tspan class="TextParagraph" font-family="Liberation Sans, sans-serif" font-size="353px" font-weight="400"><tspan class="TextPosition" x="1599" y="834"><tspan fill="rgb(0,0,0)" stroke="none">300</tspan></tspan></tspan></text>
 <path fill="none" stroke="rgb(0,69,134)" stroke-width="80" stroke-linejoin="round" d="M 25320,7159 L 26120,7159"/>
 <path fill="none" stroke="rgb(255,66,14)" stroke-width="80" stroke-linejoin="round" d="M 25320,7657 L 26120,7657"/>
 <path fill="none" stroke="rgb(255,211,32)" stroke-width="80" stroke-linejoin="round" d="M 25320,8155 L 26120,8155"/>
 <path fill="none" stroke="rgb(87,157,28)" stroke-width="80" stroke-linejoin="round" d="M 25320,8652 L 26120,8652"/>
 <path fill="none" stroke="rgb(126,0,33)" stroke-width="80" stroke-linejoin="round" d="M 25320,9150 L 26120,9150"/>
 <text class="TextShape"><tspan class="TextParagraph" font-family="Liberation Sans, sans-serif" font-size="353px" font-weight="400"><tspan class="TextPosition" x="26220" y="7279"><tspan fill="rgb(0,0,0)" stroke="none">4x A7 and 4x A15</tspan></tspan></tspan></text>
 <text class="TextShape"><tspan class="TextParagraph" font-family="Liberation Sans, sans-serif" font-size="353px" font-weight="400"><tspan class="TextPosition" x="26220" y="7777"><tspan fill="rgb(0,0,0)" stroke="none">4x A7</tspan></tspan></tspan></text>
 <text class="TextShape"><tspan class="TextParagraph" font-family="Liberation Sans, sans-serif" font-size="353px" font-weight="400"><tspan class="TextPosition" x="26220" y="8274"><tspan fill="rgb(0,0,0)" stroke="none">1x A7 and 4x A15</tspan></tspan></tspan></text>
 <text class="TextShape"><tspan class="TextParagraph" font-family="Liberation Sans, sans-serif" font-size="353px" font-weight="400"><tspan class="TextPosition" x="26220" y="8772"><tspan fill="rgb(0,0,0)" stroke="none">1x A7 and 1x A15</tspan></tspan></tspan></text>
 <text class="TextShape"><tspan class="TextParagraph" font-family="Liberation Sans, sans-serif" font-size="353px" font-weight="400"><tspan class="TextPosition" x="26220" y="9270"><tspan fill="rgb(0,0,0)" stroke="none">1x A7</tspan></tspan></tspan></text>
 <text class="TextShape"><tspan class="TextParagraph" font-family="Liberation Sans, sans-serif" font-size="318px" font-weight="400"><tspan class="TextPosition" x="11733" y="15520"><tspan fill="rgb(0,0,0)" stroke="none">Loop unroll degree</tspan></tspan></tspan></text>
 <text class="TextShape"><tspan class="TextParagraph" font-family="Liberation Sans, sans-serif" font-size="318px" font-weight="400"><tspan class="TextPosition" x="840" y="8299" transform="translate(840,8299) rotate(-90) translate(-840,-8299)"><tspan fill="rgb(0,0,0)" stroke="none">Seconds</tspan></tspan></tspan></text>
</svg>