<?xml version="1.0" encoding="UTF-8"?>
<!DOCTYPE svg PUBLIC "-//W3C//DTD SVG 1.1//EN" "http://www.w3.org/Graphics/SVG/1.1/DTD/svg11.dtd">
<svg width="292mm" height="160mm" viewBox="0 0 29200 16000" version="1.1" baseProfile="tiny" xmlns="http://www.w3.org/2000/svg" stroke-width="28.222" stroke-linejoin="round" xml:space="preserve">
 <path fill="rgb(255,255,255)" stroke="none" d="M 14610,15780 L 1,15780 1,-183 29218,-183 29218,15780 14610,15780 Z"/>
 <path fill="none" stroke="rgb(179,179,179)" stroke-linejoin="round" d="M 15333,13833 L 2032,13833 2032,335 28634,335 28634,13833 15333,13833 Z"/>
 <path fill="none" stroke="rgb(179,179,179)" stroke-linejoin="round" d="M 28634,13832 L 2032,13832"/>
 <path fill="none" stroke="rgb(179,179,179)" stroke-linejoin="round" d="M 28634,11582 L 2032,11582"/>
 <path fill="none" stroke="rgb(179,179,179)" stroke-linejoin="round" d="M 28634,9332 L 2032,9332"/>
 <path fill="none" stroke="rgb(179,179,179)" stroke-linejoin="round" d="M 28634,7083 L 2032,7083"/>
 <path fill="none" stroke="rgb(179,179,179)" stroke-linejoin="round" d="M 28634,4833 L 2032,4833"/>
 <path fill="none" stroke="rgb(179,179,179)" stroke-linejoin="round" d="M 28634,2583 L 2032,2583"/>
 <path fill="none" stroke="rgb(179,179,179)" stroke-linejoin="round" d="M 28634,334 L 2032,334"/>
 <path fill="none" stroke="rgb(179,179,179)" stroke-linejoin="round" d="M 2032,13982 L 2032,13832"/>
 <path fill="none" stroke="rgb(179,179,179)" stroke-linejoin="round" d="M 2032,13982 L 2032,13832"/>
 <path fill="none" stroke="rgb(179,179,179)" stroke-linejoin="round" d="M 7352,13982 L 7352,13832"/>
 <path fill="none" stroke="rgb(179,179,179)" stroke-linejoin="round" d="M 7352,13982 L 7352,13832"/>
 <path fill="none" stroke="rgb(179,179,179)" stroke-linejoin="round" d="M 12673,13982 L 12673,13832"/>
 <path fill="none" stroke="rgb(179,179,179)" stroke-linejoin="round" d="M 12673,13982 L 12673,13832"/>
 <path fill="none" stroke="rgb(179,179,179)" stroke-linejoin="round" d="M 17992,13982 L 17992,13832"/>
 <path fill="none" stroke="rgb(179,179,179)" stroke-linejoin="round" d="M 17992,13982 L 17992,13832"/>
 <path fill="none" stroke="rgb(179,179,179)" stroke-linejoin="round" d="M 23313,13982 L 23313,13832"/>
 <path fill="none" stroke="rgb(179,179,179)" stroke-linejoin="round" d="M 23313,13982 L 23313,13832"/>
 <path fill="none" stroke="rgb(179,179,179)" stroke-linejoin="round" d="M 28634,13982 L 28634,13832"/>
 <path fill="none" stroke="rgb(179,179,179)" stroke-linejoin="round" d="M 28634,13982 L 28634,13832"/>
 <path fill="none" stroke="rgb(179,179,179)" stroke-linejoin="round" d="M 2032,13832 L 28634,13832"/>
 <path fill="none" stroke="rgb(179,179,179)" stroke-linejoin="round" d="M 1882,13832 L 2032,13832"/>
 <path fill="none" stroke="rgb(179,179,179)" stroke-linejoin="round" d="M 1882,13832 L 2032,13832"/>
 <path fill="none" stroke="rgb(179,179,179)" stroke-linejoin="round" d="M 1882,11582 L 2032,11582"/>
 <path fill="none" stroke="rgb(179,179,179)" stroke-linejoin="round" d="M 1882,11582 L 2032,11582"/>
 <path fill="none" stroke="rgb(179,179,179)" stroke-linejoin="round" d="M 1882,9332 L 2032,9332"/>
 <path fill="none" stroke="rgb(179,179,179)" stroke-linejoin="round" d="M 1882,9332 L 2032,9332"/>
 <path fill="none" stroke="rgb(179,179,179)" stroke-linejoin="round" d="M 1882,7083 L 2032,7083"/>
 <path fill="none" stroke="rgb(179,179,179)" stroke-linejoin="round" d="M 1882,7083 L 2032,7083"/>
 <path fill="none" stroke="rgb(179,179,179)" stroke-linejoin="round" d="M 1882,4833 L 2032,4833"/>
 <path fill="none" stroke="rgb(179,179,179)" stroke-linejoin="round" d="M 1882,4833 L 2032,4833"/>
 <path fill="none" stroke="rgb(179,179,179)" stroke-linejoin="round" d="M 1882,2583 L 2032,2583"/>
 <path fill="none" stroke="rgb(179,179,179)" stroke-linejoin="round" d="M 1882,2583 L 2032,2583"/>
 <path fill="none" stroke="rgb(179,179,179)" stroke-linejoin="round" d="M 1882,334 L 2032,334"/>
 <path fill="none" stroke="rgb(179,179,179)" stroke-linejoin="round" d="M 1882,334 L 2032,334"/>
 <path fill="none" stroke="rgb(179,179,179)" stroke-linejoin="round" d="M 2032,13832 L 2032,334"/>
 <path fill="rgb(0,69,134)" stroke="none" d="M 24643,13832 L 27303,13832 27303,13173 24643,13173 24643,13832 Z"/>
 <path fill="rgb(0,69,134)" stroke="none" d="M 19322,13832 L 21983,13832 21983,10160 19322,10160 19322,13832 Z"/>
 <path fill="rgb(0,69,134)" stroke="none" d="M 14003,13832 L 16662,13832 16662,4493 14003,4493 14003,13832 Z"/>
 <path fill="rgb(0,69,134)" stroke="none" d="M 8682,13832 L 11343,13832 11343,10697 8682,10697 8682,13832 Z"/>
 <path fill="rgb(0,69,134)" stroke="none" d="M 3362,13832 L 6022,13832 6022,2118 3362,2118 3362,13832 Z"/>
 <text class="TextShape"><tspan class="TextParagraph" font-family="Liberation Sans" font-size="353px" font-weight="400"><tspan class="TextPosition" x="3342" y="14400"><tspan fill="rgb(0,0,0)" stroke="none">4x A7 and 4x A15</tspan></tspan></tspan></text>
 <text class="TextShape"><tspan class="TextParagraph" font-family="Liberation Sans" font-size="353px" font-weight="400"><tspan class="TextPosition" x="9575" y="14400"><tspan fill="rgb(0,0,0)" stroke="none">4x A7</tspan></tspan></tspan></text>
 <text class="TextShape"><tspan class="TextParagraph" font-family="Liberation Sans" font-size="353px" font-weight="400"><tspan class="TextPosition" x="13983" y="14400"><tspan fill="rgb(0,0,0)" stroke="none">1x A7 and 4x A15</tspan></tspan></tspan></text>
 <text class="TextShape"><tspan class="TextParagraph" font-family="Liberation Sans" font-size="353px" font-weight="400"><tspan class="TextPosition" x="19304" y="14400"><tspan fill="rgb(0,0,0)" stroke="none">1x A7 and 1x A15</tspan></tspan></tspan></text>
 <text class="TextShape"><tspan class="TextParagraph" font-family="Liberation Sans" font-size="353px" font-weight="400"><tspan class="TextPosition" x="25537" y="14400"><tspan fill="rgb(0,0,0)" stroke="none">1x A7</tspan></tspan></tspan></text>
 <text class="TextShape"><tspan class="TextParagraph" font-family="Liberation Sans" font-size="353px" font-weight="400"><tspan class="TextPosition" x="1597" y="13953"><tspan fill="rgb(0,0,0)" stroke="none">0</tspan></tspan></tspan></text>
 <text class="TextShape"><tspan class="TextParagraph" font-family="Liberation Sans" font-size="353px" font-weight="400"><tspan class="TextPosition" x="1597" y="11703"><tspan fill="rgb(0,0,0)" stroke="none">1</tspan></tspan></tspan></text>
 <text class="TextShape"><tspan class="TextParagraph" font-family="Liberation Sans" font-size="353px" font-weight="400"><tspan class="TextPosition" x="1597" y="9453"><tspan fill="rgb(0,0,0)" stroke="none">2</tspan></tspan></tspan></text>
 <text class="TextShape"><tspan class="TextParagraph" font-family="Liberation Sans" font-size="353px" font-weight="400"><tspan class="TextPosition" x="1597" y="7203"><tspan fill="rgb(0,0,0)" stroke="none">3</tspan></tspan></tspan></text>
 <text class="TextShape"><tspan class="TextParagraph" font-family="Liberation Sans" font-size="353px" font-weight="400"><tspan class="TextPosition" x="1597" y="4953"><tspan fill="rgb(0,0,0)" stroke="none">4</tspan></tspan></tspan></text>
 <text class="TextShape"><tspan class="TextParagraph" font-family="Liberation Sans" font-size="353px" font-weight="400"><tspan class="TextPosition" x="1597" y="2703"><tspan fill="rgb(0,0,0)" stroke="none">5</tspan></tspan></tspan></text>
 <text class="TextShape"><tspan class="TextParagraph" font-family="Liberation Sans" font-size="353px" font-weight="400"><tspan class="TextPosition" x="1597" y="454"><tspan fill="rgb(0,0,0)" stroke="none">6</tspan></tspan></tspan></text>
 <text class="TextShape"><tspan class="TextParagraph" font-family="Liberation Sans" font-size="318px" font-weight="400"><tspan class="TextPosition" x="13845" y="15186"><tspan fill="rgb(0,0,0)" stroke="none">Active processors</tspan></tspan></tspan></text>
 <text class="TextShape"><tspan class="TextParagraph" font-family="Liberation Sans" font-size="318px" font-weight="400"><tspan class="TextPosition" x="838" y="7995" transform="translate(838,7995) rotate(-90) translate(-838,-7995)"><tspan fill="rgb(0,0,0)" stroke="none">MPixels/s</tspan></tspan></tspan></text>
</svg>