<?xml version="1.0" encoding="UTF-8"?>
<!DOCTYPE svg PUBLIC "-//W3C//DTD SVG 1.1//EN" "http://www.w3.org/Graphics/SVG/1.1/DTD/svg11.dtd">
<svg width="295mm" height="169mm" viewBox="0 0 29500 16900" version="1.1" baseProfile="tiny" xmlns="http://www.w3.org/2000/svg" stroke-width="28.222" stroke-linejoin="round" xml:space="preserve">
 <path fill="rgb(255,255,255)" stroke="none" d="M 14714,16945 L -32,16945 -32,41 29460,41 29460,16945 14714,16945 Z"/>
 <path fill="none" stroke="rgb(179,179,179)" stroke-linejoin="round" d="M 12999,14441 L 2004,14441 2004,578 23993,578 23993,14441 12999,14441 Z"/>
 <path fill="none" stroke="rgb(179,179,179)" stroke-linejoin="round" d="M 23993,14440 L 2004,14440"/>
 <path fill="none" stroke="rgb(179,179,179)" stroke-linejoin="round" d="M 23993,12707 L 2004,12707"/>
 <path fill="none" stroke="rgb(179,179,179)" stroke-linejoin="round" d="M 23993,10974 L 2004,10974"/>
 <path fill="none" stroke="rgb(179,179,179)" stroke-linejoin="round" d="M 23993,9241 L 2004,9241"/>
 <path fill="none" stroke="rgb(179,179,179)" stroke-linejoin="round" d="M 23993,7509 L 2004,7509"/>
 <path fill="none" stroke="rgb(179,179,179)" stroke-linejoin="round" d="M 23993,5776 L 2004,5776"/>
 <path fill="none" stroke="rgb(179,179,179)" stroke-linejoin="round" d="M 23993,4043 L 2004,4043"/>
 <path fill="none" stroke="rgb(179,179,179)" stroke-linejoin="round" d="M 23993,2310 L 2004,2310"/>
 <path fill="none" stroke="rgb(179,179,179)" stroke-linejoin="round" d="M 23993,577 L 2004,577"/>
 <path fill="none" stroke="rgb(179,179,179)" stroke-linejoin="round" d="M 2004,14590 L 2004,14440"/>
 <path fill="none" stroke="rgb(179,179,179)" stroke-linejoin="round" d="M 2004,14590 L 2004,14440"/>
 <path fill="none" stroke="rgb(179,179,179)" stroke-linejoin="round" d="M 2353,14590 L 2353,14440"/>
 <path fill="none" stroke="rgb(179,179,179)" stroke-linejoin="round" d="M 2353,14590 L 2353,14440"/>
 <path fill="none" stroke="rgb(179,179,179)" stroke-linejoin="round" d="M 2702,14590 L 2702,14440"/>
 <path fill="none" stroke="rgb(179,179,179)" stroke-linejoin="round" d="M 2702,14590 L 2702,14440"/>
 <path fill="none" stroke="rgb(179,179,179)" stroke-linejoin="round" d="M 3051,14590 L 3051,14440"/>
 <path fill="none" stroke="rgb(179,179,179)" stroke-linejoin="round" d="M 3051,14590 L 3051,14440"/>
 <path fill="none" stroke="rgb(179,179,179)" stroke-linejoin="round" d="M 3400,14590 L 3400,14440"/>
 <path fill="none" stroke="rgb(179,179,179)" stroke-linejoin="round" d="M 3400,14590 L 3400,14440"/>
 <path fill="none" stroke="rgb(179,179,179)" stroke-linejoin="round" d="M 3749,14590 L 3749,14440"/>
 <path fill="none" stroke="rgb(179,179,179)" stroke-linejoin="round" d="M 3749,14590 L 3749,14440"/>
 <path fill="none" stroke="rgb(179,179,179)" stroke-linejoin="round" d="M 4098,14590 L 4098,14440"/>
 <path fill="none" stroke="rgb(179,179,179)" stroke-linejoin="round" d="M 4098,14590 L 4098,14440"/>
 <path fill="none" stroke="rgb(179,179,179)" stroke-linejoin="round" d="M 4447,14590 L 4447,14440"/>
 <path fill="none" stroke="rgb(179,179,179)" stroke-linejoin="round" d="M 4447,14590 L 4447,14440"/>
 <path fill="none" stroke="rgb(179,179,179)" stroke-linejoin="round" d="M 4796,14590 L 4796,14440"/>
 <path fill="none" stroke="rgb(179,179,179)" stroke-linejoin="round" d="M 4796,14590 L 4796,14440"/>
 <path fill="none" stroke="rgb(179,179,179)" stroke-linejoin="round" d="M 5145,14590 L 5145,14440"/>
 <path fill="none" stroke="rgb(179,179,179)" stroke-linejoin="round" d="M 5145,14590 L 5145,14440"/>
 <path fill="none" stroke="rgb(179,179,179)" stroke-linejoin="round" d="M 5494,14590 L 5494,14440"/>
 <path fill="none" stroke="rgb(179,179,179)" stroke-linejoin="round" d="M 5494,14590 L 5494,14440"/>
 <path fill="none" stroke="rgb(179,179,179)" stroke-linejoin="round" d="M 5843,14590 L 5843,14440"/>
 <path fill="none" stroke="rgb(179,179,179)" stroke-linejoin="round" d="M 5843,14590 L 5843,14440"/>
 <path fill="none" stroke="rgb(179,179,179)" stroke-linejoin="round" d="M 6192,14590 L 6192,14440"/>
 <path fill="none" stroke="rgb(179,179,179)" stroke-linejoin="round" d="M 6192,14590 L 6192,14440"/>
 <path fill="none" stroke="rgb(179,179,179)" stroke-linejoin="round" d="M 6541,14590 L 6541,14440"/>
 <path fill="none" stroke="rgb(179,179,179)" stroke-linejoin="round" d="M 6541,14590 L 6541,14440"/>
 <path fill="none" stroke="rgb(179,179,179)" stroke-linejoin="round" d="M 6890,14590 L 6890,14440"/>
 <path fill="none" stroke="rgb(179,179,179)" stroke-linejoin="round" d="M 6890,14590 L 6890,14440"/>
 <path fill="none" stroke="rgb(179,179,179)" stroke-linejoin="round" d="M 7239,14590 L 7239,14440"/>
 <path fill="none" stroke="rgb(179,179,179)" stroke-linejoin="round" d="M 7239,14590 L 7239,14440"/>
 <path fill="none" stroke="rgb(179,179,179)" stroke-linejoin="round" d="M 7588,14590 L 7588,14440"/>
 <path fill="none" stroke="rgb(179,179,179)" stroke-linejoin="round" d="M 7588,14590 L 7588,14440"/>
 <path fill="none" stroke="rgb(179,179,179)" stroke-linejoin="round" d="M 7937,14590 L 7937,14440"/>
 <path fill="none" stroke="rgb(179,179,179)" stroke-linejoin="round" d="M 7937,14590 L 7937,14440"/>
 <path fill="none" stroke="rgb(179,179,179)" stroke-linejoin="round" d="M 8286,14590 L 8286,14440"/>
 <path fill="none" stroke="rgb(179,179,179)" stroke-linejoin="round" d="M 8286,14590 L 8286,14440"/>
 <path fill="none" stroke="rgb(179,179,179)" stroke-linejoin="round" d="M 8635,14590 L 8635,14440"/>
 <path fill="none" stroke="rgb(179,179,179)" stroke-linejoin="round" d="M 8635,14590 L 8635,14440"/>
 <path fill="none" stroke="rgb(179,179,179)" stroke-linejoin="round" d="M 8984,14590 L 8984,14440"/>
 <path fill="none" stroke="rgb(179,179,179)" stroke-linejoin="round" d="M 8984,14590 L 8984,14440"/>
 <path fill="none" stroke="rgb(179,179,179)" stroke-linejoin="round" d="M 9334,14590 L 9334,14440"/>
 <path fill="none" stroke="rgb(179,179,179)" stroke-linejoin="round" d="M 9334,14590 L 9334,14440"/>
 <path fill="none" stroke="rgb(179,179,179)" stroke-linejoin="round" d="M 9683,14590 L 9683,14440"/>
 <path fill="none" stroke="rgb(179,179,179)" stroke-linejoin="round" d="M 9683,14590 L 9683,14440"/>
 <path fill="none" stroke="rgb(179,179,179)" stroke-linejoin="round" d="M 10032,14590 L 10032,14440"/>
 <path fill="none" stroke="rgb(179,179,179)" stroke-linejoin="round" d="M 10032,14590 L 10032,14440"/>
 <path fill="none" stroke="rgb(179,179,179)" stroke-linejoin="round" d="M 10381,14590 L 10381,14440"/>
 <path fill="none" stroke="rgb(179,179,179)" stroke-linejoin="round" d="M 10381,14590 L 10381,14440"/>
 <path fill="none" stroke="rgb(179,179,179)" stroke-linejoin="round" d="M 10730,14590 L 10730,14440"/>
 <path fill="none" stroke="rgb(179,179,179)" stroke-linejoin="round" d="M 10730,14590 L 10730,14440"/>
 <path fill="none" stroke="rgb(179,179,179)" stroke-linejoin="round" d="M 11079,14590 L 11079,14440"/>
 <path fill="none" stroke="rgb(179,179,179)" stroke-linejoin="round" d="M 11079,14590 L 11079,14440"/>
 <path fill="none" stroke="rgb(179,179,179)" stroke-linejoin="round" d="M 11428,14590 L 11428,14440"/>
 <path fill="none" stroke="rgb(179,179,179)" stroke-linejoin="round" d="M 11428,14590 L 11428,14440"/>
 <path fill="none" stroke="rgb(179,179,179)" stroke-linejoin="round" d="M 11777,14590 L 11777,14440"/>
 <path fill="none" stroke="rgb(179,179,179)" stroke-linejoin="round" d="M 11777,14590 L 11777,14440"/>
 <path fill="none" stroke="rgb(179,179,179)" stroke-linejoin="round" d="M 12126,14590 L 12126,14440"/>
 <path fill="none" stroke="rgb(179,179,179)" stroke-linejoin="round" d="M 12126,14590 L 12126,14440"/>
 <path fill="none" stroke="rgb(179,179,179)" stroke-linejoin="round" d="M 12475,14590 L 12475,14440"/>
 <path fill="none" stroke="rgb(179,179,179)" stroke-linejoin="round" d="M 12475,14590 L 12475,14440"/>
 <path fill="none" stroke="rgb(179,179,179)" stroke-linejoin="round" d="M 12824,14590 L 12824,14440"/>
 <path fill="none" stroke="rgb(179,179,179)" stroke-linejoin="round" d="M 12824,14590 L 12824,14440"/>
 <path fill="none" stroke="rgb(179,179,179)" stroke-linejoin="round" d="M 13173,14590 L 13173,14440"/>
 <path fill="none" stroke="rgb(179,179,179)" stroke-linejoin="round" d="M 13173,14590 L 13173,14440"/>
 <path fill="none" stroke="rgb(179,179,179)" stroke-linejoin="round" d="M 13522,14590 L 13522,14440"/>
 <path fill="none" stroke="rgb(179,179,179)" stroke-linejoin="round" d="M 13522,14590 L 13522,14440"/>
 <path fill="none" stroke="rgb(179,179,179)" stroke-linejoin="round" d="M 13871,14590 L 13871,14440"/>
 <path fill="none" stroke="rgb(179,179,179)" stroke-linejoin="round" d="M 13871,14590 L 13871,14440"/>
 <path fill="none" stroke="rgb(179,179,179)" stroke-linejoin="round" d="M 14220,14590 L 14220,14440"/>
 <path fill="none" stroke="rgb(179,179,179)" stroke-linejoin="round" d="M 14220,14590 L 14220,14440"/>
 <path fill="none" stroke="rgb(179,179,179)" stroke-linejoin="round" d="M 14569,14590 L 14569,14440"/>
 <path fill="none" stroke="rgb(179,179,179)" stroke-linejoin="round" d="M 14569,14590 L 14569,14440"/>
 <path fill="none" stroke="rgb(179,179,179)" stroke-linejoin="round" d="M 14917,14590 L 14917,14440"/>
 <path fill="none" stroke="rgb(179,179,179)" stroke-linejoin="round" d="M 14917,14590 L 14917,14440"/>
 <path fill="none" stroke="rgb(179,179,179)" stroke-linejoin="round" d="M 15266,14590 L 15266,14440"/>
 <path fill="none" stroke="rgb(179,179,179)" stroke-linejoin="round" d="M 15266,14590 L 15266,14440"/>
 <path fill="none" stroke="rgb(179,179,179)" stroke-linejoin="round" d="M 15615,14590 L 15615,14440"/>
 <path fill="none" stroke="rgb(179,179,179)" stroke-linejoin="round" d="M 15615,14590 L 15615,14440"/>
 <path fill="none" stroke="rgb(179,179,179)" stroke-linejoin="round" d="M 15964,14590 L 15964,14440"/>
 <path fill="none" stroke="rgb(179,179,179)" stroke-linejoin="round" d="M 15964,14590 L 15964,14440"/>
 <path fill="none" stroke="rgb(179,179,179)" stroke-linejoin="round" d="M 16313,14590 L 16313,14440"/>
 <path fill="none" stroke="rgb(179,179,179)" stroke-linejoin="round" d="M 16313,14590 L 16313,14440"/>
 <path fill="none" stroke="rgb(179,179,179)" stroke-linejoin="round" d="M 16663,14590 L 16663,14440"/>
 <path fill="none" stroke="rgb(179,179,179)" stroke-linejoin="round" d="M 16663,14590 L 16663,14440"/>
 <path fill="none" stroke="rgb(179,179,179)" stroke-linejoin="round" d="M 17012,14590 L 17012,14440"/>
 <path fill="none" stroke="rgb(179,179,179)" stroke-linejoin="round" d="M 17012,14590 L 17012,14440"/>
 <path fill="none" stroke="rgb(179,179,179)" stroke-linejoin="round" d="M 17361,14590 L 17361,14440"/>
 <path fill="none" stroke="rgb(179,179,179)" stroke-linejoin="round" d="M 17361,14590 L 17361,14440"/>
 <path fill="none" stroke="rgb(179,179,179)" stroke-linejoin="round" d="M 17710,14590 L 17710,14440"/>
 <path fill="none" stroke="rgb(179,179,179)" stroke-linejoin="round" d="M 17710,14590 L 17710,14440"/>
 <path fill="none" stroke="rgb(179,179,179)" stroke-linejoin="round" d="M 18059,14590 L 18059,14440"/>
 <path fill="none" stroke="rgb(179,179,179)" stroke-linejoin="round" d="M 18059,14590 L 18059,14440"/>
 <path fill="none" stroke="rgb(179,179,179)" stroke-linejoin="round" d="M 18408,14590 L 18408,14440"/>
 <path fill="none" stroke="rgb(179,179,179)" stroke-linejoin="round" d="M 18408,14590 L 18408,14440"/>
 <path fill="none" stroke="rgb(179,179,179)" stroke-linejoin="round" d="M 18757,14590 L 18757,14440"/>
 <path fill="none" stroke="rgb(179,179,179)" stroke-linejoin="round" d="M 18757,14590 L 18757,14440"/>
 <path fill="none" stroke="rgb(179,179,179)" stroke-linejoin="round" d="M 19106,14590 L 19106,14440"/>
 <path fill="none" stroke="rgb(179,179,179)" stroke-linejoin="round" d="M 19106,14590 L 19106,14440"/>
 <path fill="none" stroke="rgb(179,179,179)" stroke-linejoin="round" d="M 19455,14590 L 19455,14440"/>
 <path fill="none" stroke="rgb(179,179,179)" stroke-linejoin="round" d="M 19455,14590 L 19455,14440"/>
 <path fill="none" stroke="rgb(179,179,179)" stroke-linejoin="round" d="M 19804,14590 L 19804,14440"/>
 <path fill="none" stroke="rgb(179,179,179)" stroke-linejoin="round" d="M 19804,14590 L 19804,14440"/>
 <path fill="none" stroke="rgb(179,179,179)" stroke-linejoin="round" d="M 20153,14590 L 20153,14440"/>
 <path fill="none" stroke="rgb(179,179,179)" stroke-linejoin="round" d="M 20153,14590 L 20153,14440"/>
 <path fill="none" stroke="rgb(179,179,179)" stroke-linejoin="round" d="M 20502,14590 L 20502,14440"/>
 <path fill="none" stroke="rgb(179,179,179)" stroke-linejoin="round" d="M 20502,14590 L 20502,14440"/>
 <path fill="none" stroke="rgb(179,179,179)" stroke-linejoin="round" d="M 20851,14590 L 20851,14440"/>
 <path fill="none" stroke="rgb(179,179,179)" stroke-linejoin="round" d="M 20851,14590 L 20851,14440"/>
 <path fill="none" stroke="rgb(179,179,179)" stroke-linejoin="round" d="M 21200,14590 L 21200,14440"/>
 <path fill="none" stroke="rgb(179,179,179)" stroke-linejoin="round" d="M 21200,14590 L 21200,14440"/>
 <path fill="none" stroke="rgb(179,179,179)" stroke-linejoin="round" d="M 21549,14590 L 21549,14440"/>
 <path fill="none" stroke="rgb(179,179,179)" stroke-linejoin="round" d="M 21549,14590 L 21549,14440"/>
 <path fill="none" stroke="rgb(179,179,179)" stroke-linejoin="round" d="M 21898,14590 L 21898,14440"/>
 <path fill="none" stroke="rgb(179,179,179)" stroke-linejoin="round" d="M 21898,14590 L 21898,14440"/>
 <path fill="none" stroke="rgb(179,179,179)" stroke-linejoin="round" d="M 22247,14590 L 22247,14440"/>
 <path fill="none" stroke="rgb(179,179,179)" stroke-linejoin="round" d="M 22247,14590 L 22247,14440"/>
 <path fill="none" stroke="rgb(179,179,179)" stroke-linejoin="round" d="M 22596,14590 L 22596,14440"/>
 <path fill="none" stroke="rgb(179,179,179)" stroke-linejoin="round" d="M 22596,14590 L 22596,14440"/>
 <path fill="none" stroke="rgb(179,179,179)" stroke-linejoin="round" d="M 22945,14590 L 22945,14440"/>
 <path fill="none" stroke="rgb(179,179,179)" stroke-linejoin="round" d="M 22945,14590 L 22945,14440"/>
 <path fill="none" stroke="rgb(179,179,179)" stroke-linejoin="round" d="M 23294,14590 L 23294,14440"/>
 <path fill="none" stroke="rgb(179,179,179)" stroke-linejoin="round" d="M 23294,14590 L 23294,14440"/>
 <path fill="none" stroke="rgb(179,179,179)" stroke-linejoin="round" d="M 23643,14590 L 23643,14440"/>
 <path fill="none" stroke="rgb(179,179,179)" stroke-linejoin="round" d="M 23643,14590 L 23643,14440"/>
 <path fill="none" stroke="rgb(179,179,179)" stroke-linejoin="round" d="M 23993,14590 L 23993,14440"/>
 <path fill="none" stroke="rgb(179,179,179)" stroke-linejoin="round" d="M 23993,14590 L 23993,14440"/>
 <path fill="none" stroke="rgb(179,179,179)" stroke-linejoin="round" d="M 2004,14440 L 23993,14440"/>
 <path fill="none" stroke="rgb(179,179,179)" stroke-linejoin="round" d="M 1854,14440 L 2004,14440"/>
 <path fill="none" stroke="rgb(179,179,179)" stroke-linejoin="round" d="M 1854,14440 L 2004,14440"/>
 <path fill="none" stroke="rgb(179,179,179)" stroke-linejoin="round" d="M 1854,12707 L 2004,12707"/>
 <path fill="none" stroke="rgb(179,179,179)" stroke-linejoin="round" d="M 1854,12707 L 2004,12707"/>
 <path fill="none" stroke="rgb(179,179,179)" stroke-linejoin="round" d="M 1854,10974 L 2004,10974"/>
 <path fill="none" stroke="rgb(179,179,179)" stroke-linejoin="round" d="M 1854,10974 L 2004,10974"/>
 <path fill="none" stroke="rgb(179,179,179)" stroke-linejoin="round" d="M 1854,9241 L 2004,9241"/>
 <path fill="none" stroke="rgb(179,179,179)" stroke-linejoin="round" d="M 1854,9241 L 2004,9241"/>
 <path fill="none" stroke="rgb(179,179,179)" stroke-linejoin="round" d="M 1854,7509 L 2004,7509"/>
 <path fill="none" stroke="rgb(179,179,179)" stroke-linejoin="round" d="M 1854,7509 L 2004,7509"/>
 <path fill="none" stroke="rgb(179,179,179)" stroke-linejoin="round" d="M 1854,5776 L 2004,5776"/>
 <path fill="none" stroke="rgb(179,179,179)" stroke-linejoin="round" d="M 1854,5776 L 2004,5776"/>
 <path fill="none" stroke="rgb(179,179,179)" stroke-linejoin="round" d="M 1854,4043 L 2004,4043"/>
 <path fill="none" stroke="rgb(179,179,179)" stroke-linejoin="round" d="M 1854,4043 L 2004,4043"/>
 <path fill="none" stroke="rgb(179,179,179)" stroke-linejoin="round" d="M 1854,2310 L 2004,2310"/>
 <path fill="none" stroke="rgb(179,179,179)" stroke-linejoin="round" d="M 1854,2310 L 2004,2310"/>
 <path fill="none" stroke="rgb(179,179,179)" stroke-linejoin="round" d="M 1854,577 L 2004,577"/>
 <path fill="none" stroke="rgb(179,179,179)" stroke-linejoin="round" d="M 1854,577 L 2004,577"/>
 <path fill="none" stroke="rgb(179,179,179)" stroke-linejoin="round" d="M 2004,14440 L 2004,577"/>
 <path fill="none" stroke="rgb(51,51,51)" stroke-width="51" stroke-linejoin="round" d="M 2004,7032 L 2178,7032 2178,7032 2353,7032 2527,7032 2527,2868 2702,2868 2876,2868 2876,3179 3051,3179 3225,3179 3225,4880 3400,4880 3574,4880 3574,4880 3749,4880 3923,4880 3923,5301 4098,5301 4272,5301 4272,4796 4447,4796 4621,4796 4621,5479 4796,5479 4970,5479 4970,5479 5145,5479 5319,5479 5319,5292 5494,5292 5669,5292 5669,5212 5843,5212 6018,5212 6018,5261 6192,5261 6367,5261 6367,5261 6541,5261 6716,5261 6716,5951 6890,5951 7065,5951 7065,5131 7239,5131 7414,5131 7414,5737 7588,5737 7763,5737 7763,5737 7937,5737 8112,5737 8112,5462 8286,5462 8461,5462 8461,5931 8635,5931 8810,5931 8810,5401 8984,5401 9159,5401 9159,5067 9334,5067 9508,5067 9508,5067 9683,5067 9857,5067 9857,5148 10032,5148 10206,5148 10206,5814 10381,5814 10555,5814 10555,5814 10730,5814 10904,5814 10904,5814 11079,5814 11253,5814 11253,5391 11428,5391 11602,5391 11602,5200 11777,5200 11951,5200 11951,5592 12126,5592 12300,5592 12300,5592 12475,5592 12649,5592 12649,6212 12824,6212 12999,6212 12999,5377 13173,5377 13348,5377 13348,6006 13522,6006 13697,6006 13697,6006 13871,6006 14046,6006 14046,5432 14220,5432 14395,5432 14395,4963 14569,4963 14743,4963 14743,6067 14917,6067 15092,6067 15092,6067 15266,6067 15441,6067 15441,5990 15615,5990 15790,5990 15790,5346 15964,5346 16139,5346 16139,5197 16313,5197 16488,5197 16488,5197 16663,5197 16837,5197 16837,5490 17012,5490 17186,5490 17186,5850 17361,5850 17535,5850 17535,6266 17710,6266 17884,6266 17884,6266 18059,6266 18233,6266 18233,5571 18408,5571 18582,5571 18582,5678 18757,5678 18931,5678 18931,5957 19106,5957 19280,5957 19280,5122 19455,5122 19629,5122 19629,5122 19804,5122 19978,5122 19978,5699 20153,5699 20328,5699 20328,6056 20502,6056 20677,6056 20677,5654 20851,5654 21026,5654 21026,5654 21200,5654 21375,5654 21375,5391 21549,5391 21724,5391 21724,6191 21898,6191 22073,6191 22073,5788 22247,5788 22422,5788 22422,5788 22596,5788 22771,5788 22771,6405 22945,6405 23120,6405 23120,6320 23294,6320 23469,6320 23469,5968 23643,5968 23818,5968 23818,5968 23993,5968"/>
 <path fill="none" stroke="rgb(51,51,51)" stroke-width="51" stroke-linejoin="round" stroke-dasharray="100,100" d="M 2004,13311 L 2178,13311 2178,13311 2353,13311 2527,13311 2527,13133 2702,13133 2876,13133 2876,13126 3051,13126 3225,13126 3225,13112 3400,13112 3574,13112 3574,13112 3749,13112 3923,13112 3923,13067 4098,13067 4272,13067 4272,13110 4447,13110 4621,13110 4621,13105 4796,13105 4970,13105 4970,13105 5145,13105 5319,13105 5319,13107 5494,13107 5669,13107 5669,13100 5843,13100 6018,13100 6018,13100 6192,13100 6367,13100 6367,13100 6541,13100 6716,13100 6716,13098 6890,13098 7065,13098 7065,13100 7239,13100 7414,13100 7414,13095 7588,13095 7763,13095 7763,13095 7937,13095 8112,13095 8112,13103 8286,13103 8461,13103 8461,13103 8635,13103 8810,13103 8810,13100 8984,13100 9159,13100 9159,13089 9334,13089 9508,13089 9508,13089 9683,13089 9857,13089 9857,13100 10032,13100 10206,13100 10206,13096 10381,13096 10555,13096 10555,13091 10730,13091 10904,13091 10904,13091 11079,13091 11253,13091 11253,13069 11428,13069 11602,13069 11602,13089 11777,13089 11951,13089 11951,13095 12126,13095 12300,13095 12300,13095 12475,13095 12649,13095 12649,13100 12824,13100 12999,13100 12999,13093 13173,13093 13348,13093 13348,13095 13522,13095 13697,13095 13697,13095 13871,13095 14046,13095 14046,13100 14220,13100 14395,13100 14395,13100 14569,13100 14743,13100 14743,13088 14917,13088 15092,13088 15092,13088 15266,13088 15441,13088 15441,13077 15615,13077 15790,13077 15790,13095 15964,13095 16139,13095 16139,13095 16313,13095 16488,13095 16488,13095 16663,13095 16837,13095 16837,13100 17012,13100 17186,13100 17186,13103 17361,13103 17535,13103 17535,13098 17710,13098 17884,13098 17884,13098 18059,13098 18233,13098 18233,13102 18408,13102 18582,13102 18582,13103 18757,13103 18931,13103 18931,13100 19106,13100 19280,13100 19280,13100 19455,13100 19629,13100 19629,13100 19804,13100 19978,13100 19978,13074 20153,13074 20328,13074 20328,13074 20502,13074 20677,13074 20677,13095 20851,13095 21026,13095 21026,13095 21200,13095 21375,13095 21375,13095 21549,13095 21724,13095 21724,13095 21898,13095 22073,13095 22073,13096 22247,13096 22422,13096 22422,13096 22596,13096 22771,13096 22771,13098 22945,13098 23120,13098 23120,13095 23294,13095 23469,13095 23469,13098 23643,13098 23818,13098 23818,13098 23993,13098"/>
 <text class="TextShape"><tspan class="TextParagraph" font-family="Liberation Sans" font-size="353px" font-weight="400"><tspan class="TextPosition" x="1569" y="14561"><tspan fill="rgb(0,0,0)" stroke="none">0</tspan></tspan></tspan></text>
 <text class="TextShape"><tspan class="TextParagraph" font-family="Liberation Sans" font-size="353px" font-weight="400"><tspan class="TextPosition" x="1569" y="12828"><tspan fill="rgb(0,0,0)" stroke="none">1</tspan></tspan></tspan></text>
 <text class="TextShape"><tspan class="TextParagraph" font-family="Liberation Sans" font-size="353px" font-weight="400"><tspan class="TextPosition" x="1569" y="11095"><tspan fill="rgb(0,0,0)" stroke="none">2</tspan></tspan></tspan></text>
 <text class="TextShape"><tspan class="TextParagraph" font-family="Liberation Sans" font-size="353px" font-weight="400"><tspan class="TextPosition" x="1569" y="9362"><tspan fill="rgb(0,0,0)" stroke="none">3</tspan></tspan></tspan></text>
 <text class="TextShape"><tspan class="TextParagraph" font-family="Liberation Sans" font-size="353px" font-weight="400"><tspan class="TextPosition" x="1569" y="7629"><tspan fill="rgb(0,0,0)" stroke="none">4</tspan></tspan></tspan></text>
 <text class="TextShape"><tspan class="TextParagraph" font-family="Liberation Sans" font-size="353px" font-weight="400"><tspan class="TextPosition" x="1569" y="5896"><tspan fill="rgb(0,0,0)" stroke="none">5</tspan></tspan></tspan></text>
 <text class="TextShape"><tspan class="TextParagraph" font-family="Liberation Sans" font-size="353px" font-weight="400"><tspan class="TextPosition" x="1569" y="4163"><tspan fill="rgb(0,0,0)" stroke="none">6</tspan></tspan></tspan></text>
 <text class="TextShape"><tspan class="TextParagraph" font-family="Liberation Sans" font-size="353px" font-weight="400"><tspan class="TextPosition" x="1569" y="2430"><tspan fill="rgb(0,0,0)" stroke="none">7</tspan></tspan></tspan></text>
 <text class="TextShape"><tspan class="TextParagraph" font-family="Liberation Sans" font-size="353px" font-weight="400"><tspan class="TextPosition" x="1569" y="697"><tspan fill="rgb(0,0,0)" stroke="none">8</tspan></tspan></tspan></text>
 <path fill="none" stroke="rgb(51,51,51)" stroke-width="51" stroke-linejoin="round" d="M 24839,8243 L 26439,8243"/>
 <path fill="none" stroke="rgb(51,51,51)" stroke-width="51" stroke-linejoin="round" stroke-dasharray="100,100" d="M 24839,8740 L 26439,8740"/>
 <text class="TextShape"><tspan class="TextParagraph" font-family="Liberation Sans" font-size="353px" font-weight="400"><tspan class="TextPosition" x="26539" y="8363"><tspan fill="rgb(0,0,0)" stroke="none">ARM Cortex-A15</tspan></tspan></tspan></text>
 <text class="TextShape"><tspan class="TextParagraph" font-family="Liberation Sans" font-size="353px" font-weight="400"><tspan class="TextPosition" x="26539" y="8860"><tspan fill="rgb(0,0,0)" stroke="none">ARM Cortex-A7</tspan></tspan></tspan></text>
 <text class="TextShape"><tspan class="TextParagraph" font-family="Liberation Sans" font-size="318px" font-weight="400"><tspan class="TextPosition" x="12639" y="16351"><tspan fill="rgb(0,0,0)" stroke="none">ms</tspan></tspan></tspan></text>
 <text class="TextShape"><tspan class="TextParagraph" font-family="Liberation Sans" font-size="318px" font-weight="400"><tspan class="TextPosition" x="805" y="8148" transform="translate(805,8148) rotate(-90) translate(-805,-8148)"><tspan fill="rgb(0,0,0)" stroke="none">W</tspan></tspan></tspan></text>
</svg>