<?xml version="1.0" encoding="UTF-8"?>
<!DOCTYPE svg PUBLIC "-//W3C//DTD SVG 1.1//EN" "http://www.w3.org/Graphics/SVG/1.1/DTD/svg11.dtd">
<svg width="247mm" height="137mm" viewBox="0 0 24700 13700" version="1.1" baseProfile="tiny" xmlns="http://www.w3.org/2000/svg" stroke-width="28.222" stroke-linejoin="round" xml:space="preserve">
 <path fill="rgb(255,255,255)" stroke="none" d="M 12382,13734 L 32,13734 32,-9 24732,-9 24732,13734 12382,13734 Z"/>
 <path fill="none" stroke="rgb(179,179,179)" stroke-linejoin="round" d="M 12292,11832 L 2344,11832 2344,464 22239,464 22239,11832 12292,11832 Z"/>
 <path fill="none" stroke="rgb(179,179,179)" stroke-linejoin="round" d="M 22239,11831 L 2344,11831"/>
 <path fill="none" stroke="rgb(179,179,179)" stroke-linejoin="round" d="M 22239,10206 L 2344,10206"/>
 <path fill="none" stroke="rgb(179,179,179)" stroke-linejoin="round" d="M 22239,8582 L 2344,8582"/>
 <path fill="none" stroke="rgb(179,179,179)" stroke-linejoin="round" d="M 22239,6958 L 2344,6958"/>
 <path fill="none" stroke="rgb(179,179,179)" stroke-linejoin="round" d="M 22239,5335 L 2344,5335"/>
 <path fill="none" stroke="rgb(179,179,179)" stroke-linejoin="round" d="M 22239,3711 L 2344,3711"/>
 <path fill="none" stroke="rgb(179,179,179)" stroke-linejoin="round" d="M 22239,2087 L 2344,2087"/>
 <path fill="none" stroke="rgb(179,179,179)" stroke-linejoin="round" d="M 22239,463 L 2344,463"/>
 <path fill="none" stroke="rgb(179,179,179)" stroke-linejoin="round" d="M 2344,11981 L 2344,11831"/>
 <path fill="none" stroke="rgb(179,179,179)" stroke-linejoin="round" d="M 2344,11981 L 2344,11831"/>
 <path fill="none" stroke="rgb(179,179,179)" stroke-linejoin="round" d="M 6323,11981 L 6323,11831"/>
 <path fill="none" stroke="rgb(179,179,179)" stroke-linejoin="round" d="M 6323,11981 L 6323,11831"/>
 <path fill="none" stroke="rgb(179,179,179)" stroke-linejoin="round" d="M 10302,11981 L 10302,11831"/>
 <path fill="none" stroke="rgb(179,179,179)" stroke-linejoin="round" d="M 10302,11981 L 10302,11831"/>
 <path fill="none" stroke="rgb(179,179,179)" stroke-linejoin="round" d="M 14280,11981 L 14280,11831"/>
 <path fill="none" stroke="rgb(179,179,179)" stroke-linejoin="round" d="M 14280,11981 L 14280,11831"/>
 <path fill="none" stroke="rgb(179,179,179)" stroke-linejoin="round" d="M 18259,11981 L 18259,11831"/>
 <path fill="none" stroke="rgb(179,179,179)" stroke-linejoin="round" d="M 18259,11981 L 18259,11831"/>
 <path fill="none" stroke="rgb(179,179,179)" stroke-linejoin="round" d="M 22239,11981 L 22239,11831"/>
 <path fill="none" stroke="rgb(179,179,179)" stroke-linejoin="round" d="M 22239,11981 L 22239,11831"/>
 <path fill="none" stroke="rgb(179,179,179)" stroke-linejoin="round" d="M 2344,11831 L 22239,11831"/>
 <path fill="none" stroke="rgb(179,179,179)" stroke-linejoin="round" d="M 2194,11831 L 2344,11831"/>
 <path fill="none" stroke="rgb(179,179,179)" stroke-linejoin="round" d="M 2194,11831 L 2344,11831"/>
 <path fill="none" stroke="rgb(179,179,179)" stroke-linejoin="round" d="M 2194,10206 L 2344,10206"/>
 <path fill="none" stroke="rgb(179,179,179)" stroke-linejoin="round" d="M 2194,10206 L 2344,10206"/>
 <path fill="none" stroke="rgb(179,179,179)" stroke-linejoin="round" d="M 2194,8582 L 2344,8582"/>
 <path fill="none" stroke="rgb(179,179,179)" stroke-linejoin="round" d="M 2194,8582 L 2344,8582"/>
 <path fill="none" stroke="rgb(179,179,179)" stroke-linejoin="round" d="M 2194,6958 L 2344,6958"/>
 <path fill="none" stroke="rgb(179,179,179)" stroke-linejoin="round" d="M 2194,6958 L 2344,6958"/>
 <path fill="none" stroke="rgb(179,179,179)" stroke-linejoin="round" d="M 2194,5335 L 2344,5335"/>
 <path fill="none" stroke="rgb(179,179,179)" stroke-linejoin="round" d="M 2194,5335 L 2344,5335"/>
 <path fill="none" stroke="rgb(179,179,179)" stroke-linejoin="round" d="M 2194,3711 L 2344,3711"/>
 <path fill="none" stroke="rgb(179,179,179)" stroke-linejoin="round" d="M 2194,3711 L 2344,3711"/>
 <path fill="none" stroke="rgb(179,179,179)" stroke-linejoin="round" d="M 2194,2087 L 2344,2087"/>
 <path fill="none" stroke="rgb(179,179,179)" stroke-linejoin="round" d="M 2194,2087 L 2344,2087"/>
 <path fill="none" stroke="rgb(179,179,179)" stroke-linejoin="round" d="M 2194,463 L 2344,463"/>
 <path fill="none" stroke="rgb(179,179,179)" stroke-linejoin="round" d="M 2194,463 L 2344,463"/>
 <path fill="none" stroke="rgb(179,179,179)" stroke-linejoin="round" d="M 2344,11831 L 2344,463"/>
 <path fill="rgb(0,69,134)" stroke="none" d="M 19254,11831 L 21244,11831 21244,9600 19254,9600 19254,11831 Z"/>
 <path fill="rgb(0,69,134)" stroke="none" d="M 15275,11831 L 17265,11831 17265,3034 15275,3034 15275,11831 Z"/>
 <path fill="rgb(0,69,134)" stroke="none" d="M 11297,11831 L 13285,11831 13285,4827 11297,4827 11297,11831 Z"/>
 <path fill="rgb(0,69,134)" stroke="none" d="M 7318,11831 L 9307,11831 9307,11298 7318,11298 7318,11831 Z"/>
 <path fill="rgb(0,69,134)" stroke="none" d="M 3338,11831 L 5328,11831 5328,6477 3338,6477 3338,11831 Z"/>
 <path fill="rgb(255,66,14)" stroke="none" d="M 19254,9600 L 21244,9600 21244,4878 19254,4878 19254,9600 Z"/>
 <path fill="rgb(255,66,14)" stroke="none" d="M 15275,3034 L 17265,3034 17265,2185 15275,2185 15275,3034 Z"/>
 <path fill="rgb(255,66,14)" stroke="none" d="M 11297,4827 L 13285,4827 13285,4465 11297,4465 11297,4827 Z"/>
 <path fill="rgb(255,66,14)" stroke="none" d="M 7318,11298 L 9307,11298 9307,8498 7318,8498 7318,11298 Z"/>
 <path fill="rgb(255,66,14)" stroke="none" d="M 3338,6477 L 5328,6477 5328,5672 3338,5672 3338,6477 Z"/>
 <path fill="rgb(255,211,32)" stroke="none" d="M 19254,4878 L 21244,4878 21244,3362 19254,3362 19254,4878 Z"/>
 <path fill="rgb(255,211,32)" stroke="none" d="M 15275,2185 L 17265,2185 17265,1912 15275,1912 15275,2185 Z"/>
 <path fill="rgb(255,211,32)" stroke="none" d="M 11297,4465 L 13285,4465 13285,4312 11297,4312 11297,4465 Z"/>
 <path fill="rgb(255,211,32)" stroke="none" d="M 7318,8498 L 9307,8498 9307,8146 7318,8146 7318,8498 Z"/>
 <path fill="rgb(255,211,32)" stroke="none" d="M 3338,5672 L 5328,5672 5328,5545 3338,5545 3338,5672 Z"/>
 <path fill="rgb(87,157,28)" stroke="none" d="M 19254,3362 L 21244,3362 21244,2040 19254,2040 19254,3362 Z"/>
 <path fill="rgb(87,157,28)" stroke="none" d="M 15275,1912 L 17265,1912 17265,1659 15275,1659 15275,1912 Z"/>
 <path fill="rgb(87,157,28)" stroke="none" d="M 11297,4312 L 13285,4312 13285,4168 11297,4168 11297,4312 Z"/>
 <path fill="rgb(87,157,28)" stroke="none" d="M 7318,8146 L 9307,8146 9307,7826 7318,7826 7318,8146 Z"/>
 <path fill="rgb(87,157,28)" stroke="none" d="M 3338,5545 L 5328,5545 5328,5419 3338,5419 3338,5545 Z"/>
 <text class="TextShape"><tspan class="TextParagraph" font-family="Liberation Sans, sans-serif" font-size="353px" font-weight="400"><tspan class="TextPosition" x="2983" y="12399"><tspan fill="rgb(0,0,0)" stroke="none">4x A7 and 4x A15</tspan></tspan></tspan></text>
 <text class="TextShape"><tspan class="TextParagraph" font-family="Liberation Sans, sans-serif" font-size="353px" font-weight="400"><tspan class="TextPosition" x="7875" y="12399"><tspan fill="rgb(0,0,0)" stroke="none">4x A7</tspan></tspan></tspan></text>
 <text class="TextShape"><tspan class="TextParagraph" font-family="Liberation Sans, sans-serif" font-size="353px" font-weight="400"><tspan class="TextPosition" x="10942" y="12399"><tspan fill="rgb(0,0,0)" stroke="none">1x A7 and 4x A15</tspan></tspan></tspan></text>
 <text class="TextShape"><tspan class="TextParagraph" font-family="Liberation Sans, sans-serif" font-size="353px" font-weight="400"><tspan class="TextPosition" x="14921" y="12399"><tspan fill="rgb(0,0,0)" stroke="none">1x A7 and 1x A15</tspan></tspan></tspan></text>
 <text class="TextShape"><tspan class="TextParagraph" font-family="Liberation Sans, sans-serif" font-size="353px" font-weight="400"><tspan class="TextPosition" x="19813" y="12399"><tspan fill="rgb(0,0,0)" stroke="none">1x A7</tspan></tspan></tspan></text>
 <text class="TextShape"><tspan class="TextParagraph" font-family="Liberation Sans, sans-serif" font-size="353px" font-weight="400"><tspan class="TextPosition" x="1909" y="11952"><tspan fill="rgb(0,0,0)" stroke="none">0</tspan></tspan></tspan></text>
 <text class="TextShape"><tspan class="TextParagraph" font-family="Liberation Sans, sans-serif" font-size="353px" font-weight="400"><tspan class="TextPosition" x="1724" y="10327"><tspan fill="rgb(0,0,0)" stroke="none">20</tspan></tspan></tspan></text>
 <text class="TextShape"><tspan class="TextParagraph" font-family="Liberation Sans, sans-serif" font-size="353px" font-weight="400"><tspan class="TextPosition" x="1724" y="8703"><tspan fill="rgb(0,0,0)" stroke="none">40</tspan></tspan></tspan></text>
 <text class="TextShape"><tspan class="TextParagraph" font-family="Liberation Sans, sans-serif" font-size="353px" font-weight="400"><tspan class="TextPosition" x="1724" y="7079"><tspan fill="rgb(0,0,0)" stroke="none">60</tspan></tspan></tspan></text>
 <text class="TextShape"><tspan class="TextParagraph" font-family="Liberation Sans, sans-serif" font-size="353px" font-weight="400"><tspan class="TextPosition" x="1724" y="5455"><tspan fill="rgb(0,0,0)" stroke="none">80</tspan></tspan></tspan></text>
 <text class="TextShape"><tspan class="TextParagraph" font-family="Liberation Sans, sans-serif" font-size="353px" font-weight="400"><tspan class="TextPosition" x="1538" y="3831"><tspan fill="rgb(0,0,0)" stroke="none">100</tspan></tspan></tspan></text>
 <text class="TextShape"><tspan class="TextParagraph" font-family="Liberation Sans, sans-serif" font-size="353px" font-weight="400"><tspan class="TextPosition" x="1538" y="2207"><tspan fill="rgb(0,0,0)" stroke="none">120</tspan></tspan></tspan></text>
 <text class="TextShape"><tspan class="TextParagraph" font-family="Liberation Sans, sans-serif" font-size="353px" font-weight="400"><tspan class="TextPosition" x="1538" y="583"><tspan fill="rgb(0,0,0)" stroke="none">140</tspan></tspan></tspan></text>
 <path fill="rgb(0,69,134)" stroke="none" d="M 22955,7714 L 22849,7714 22849,7503 23060,7503 23060,7714 22955,7714 Z"/>
 <path fill="rgb(255,66,14)" stroke="none" d="M 22955,7216 L 22849,7216 22849,7005 23060,7005 23060,7216 22955,7216 Z"/>
 <path fill="rgb(255,211,32)" stroke="none" d="M 22955,6719 L 22849,6719 22849,6508 23060,6508 23060,6719 22955,6719 Z"/>
 <path fill="rgb(87,157,28)" stroke="none" d="M 22955,6221 L 22849,6221 22849,6010 23060,6010 23060,6221 22955,6221 Z"/>
 <text class="TextShape"><tspan class="TextParagraph" font-family="Liberation Sans, sans-serif" font-size="353px" font-weight="400"><tspan class="TextPosition" x="23160" y="6235"><tspan fill="rgb(0,0,0)" stroke="none">Memory</tspan></tspan></tspan></text>
 <text class="TextShape"><tspan class="TextParagraph" font-family="Liberation Sans, sans-serif" font-size="353px" font-weight="400"><tspan class="TextPosition" x="23160" y="6733"><tspan fill="rgb(0,0,0)" stroke="none">GPU</tspan></tspan></tspan></text>
 <text class="TextShape"><tspan class="TextParagraph" font-family="Liberation Sans, sans-serif" font-size="353px" font-weight="400"><tspan class="TextPosition" x="23160" y="7230"><tspan fill="rgb(0,0,0)" stroke="none">A7</tspan></tspan></tspan></text>
 <text class="TextShape"><tspan class="TextParagraph" font-family="Liberation Sans, sans-serif" font-size="353px" font-weight="400"><tspan class="TextPosition" x="23160" y="7728"><tspan fill="rgb(0,0,0)" stroke="none">A15</tspan></tspan></tspan></text>
 <text class="TextShape"><tspan class="TextParagraph" font-family="Liberation Sans, sans-serif" font-size="318px" font-weight="400"><tspan class="TextPosition" x="10618" y="13140"><tspan fill="rgb(0,0,0)" stroke="none">Active processors</tspan></tspan></tspan></text>
 <text class="TextShape"><tspan class="TextParagraph" font-family="Liberation Sans, sans-serif" font-size="318px" font-weight="400"><tspan class="TextPosition" x="869" y="6768" transform="translate(869,6768) rotate(-90) translate(-869,-6768)"><tspan fill="rgb(0,0,0)" stroke="none">Joule</tspan></tspan></tspan></text>
</svg>