<?xml version="1.0" encoding="UTF-8"?>
<!DOCTYPE svg PUBLIC "-//W3C//DTD SVG 1.1//EN" "http://www.w3.org/Graphics/SVG/1.1/DTD/svg11.dtd">
<svg width="292mm" height="159mm" viewBox="0 0 29200 15900" version="1.1" baseProfile="tiny" xmlns="http://www.w3.org/2000/svg" stroke-width="28.222" stroke-linejoin="round" xml:space="preserve">
 <path fill="rgb(255,255,255)" stroke="none" d="M 14598,16054 L -13,16054 -13,116 29208,116 29208,16054 14598,16054 Z"/>
 <path fill="none" stroke="rgb(179,179,179)" stroke-linejoin="round" d="M 14322,14108 L 2018,14108 2018,634 26625,634 26625,14108 14322,14108 Z"/>
 <path fill="none" stroke="rgb(179,179,179)" stroke-linejoin="round" d="M 26625,14107 L 2018,14107"/>
 <path fill="none" stroke="rgb(179,179,179)" stroke-linejoin="round" d="M 26625,12182 L 2018,12182"/>
 <path fill="none" stroke="rgb(179,179,179)" stroke-linejoin="round" d="M 26625,10257 L 2018,10257"/>
 <path fill="none" stroke="rgb(179,179,179)" stroke-linejoin="round" d="M 26625,8332 L 2018,8332"/>
 <path fill="none" stroke="rgb(179,179,179)" stroke-linejoin="round" d="M 26625,6408 L 2018,6408"/>
 <path fill="none" stroke="rgb(179,179,179)" stroke-linejoin="round" d="M 26625,4483 L 2018,4483"/>
 <path fill="none" stroke="rgb(179,179,179)" stroke-linejoin="round" d="M 26625,2558 L 2018,2558"/>
 <path fill="none" stroke="rgb(179,179,179)" stroke-linejoin="round" d="M 26625,633 L 2018,633"/>
 <path fill="none" stroke="rgb(179,179,179)" stroke-linejoin="round" d="M 2018,14257 L 2018,14107"/>
 <path fill="none" stroke="rgb(179,179,179)" stroke-linejoin="round" d="M 2018,14257 L 2018,14107"/>
 <path fill="none" stroke="rgb(179,179,179)" stroke-linejoin="round" d="M 6939,14257 L 6939,14107"/>
 <path fill="none" stroke="rgb(179,179,179)" stroke-linejoin="round" d="M 6939,14257 L 6939,14107"/>
 <path fill="none" stroke="rgb(179,179,179)" stroke-linejoin="round" d="M 11861,14257 L 11861,14107"/>
 <path fill="none" stroke="rgb(179,179,179)" stroke-linejoin="round" d="M 11861,14257 L 11861,14107"/>
 <path fill="none" stroke="rgb(179,179,179)" stroke-linejoin="round" d="M 16781,14257 L 16781,14107"/>
 <path fill="none" stroke="rgb(179,179,179)" stroke-linejoin="round" d="M 16781,14257 L 16781,14107"/>
 <path fill="none" stroke="rgb(179,179,179)" stroke-linejoin="round" d="M 21703,14257 L 21703,14107"/>
 <path fill="none" stroke="rgb(179,179,179)" stroke-linejoin="round" d="M 21703,14257 L 21703,14107"/>
 <path fill="none" stroke="rgb(179,179,179)" stroke-linejoin="round" d="M 26625,14257 L 26625,14107"/>
 <path fill="none" stroke="rgb(179,179,179)" stroke-linejoin="round" d="M 26625,14257 L 26625,14107"/>
 <path fill="none" stroke="rgb(179,179,179)" stroke-linejoin="round" d="M 2018,14107 L 26625,14107"/>
 <path fill="none" stroke="rgb(179,179,179)" stroke-linejoin="round" d="M 1868,14107 L 2018,14107"/>
 <path fill="none" stroke="rgb(179,179,179)" stroke-linejoin="round" d="M 1868,14107 L 2018,14107"/>
 <path fill="none" stroke="rgb(179,179,179)" stroke-linejoin="round" d="M 1868,12182 L 2018,12182"/>
 <path fill="none" stroke="rgb(179,179,179)" stroke-linejoin="round" d="M 1868,12182 L 2018,12182"/>
 <path fill="none" stroke="rgb(179,179,179)" stroke-linejoin="round" d="M 1868,10257 L 2018,10257"/>
 <path fill="none" stroke="rgb(179,179,179)" stroke-linejoin="round" d="M 1868,10257 L 2018,10257"/>
 <path fill="none" stroke="rgb(179,179,179)" stroke-linejoin="round" d="M 1868,8332 L 2018,8332"/>
 <path fill="none" stroke="rgb(179,179,179)" stroke-linejoin="round" d="M 1868,8332 L 2018,8332"/>
 <path fill="none" stroke="rgb(179,179,179)" stroke-linejoin="round" d="M 1868,6408 L 2018,6408"/>
 <path fill="none" stroke="rgb(179,179,179)" stroke-linejoin="round" d="M 1868,6408 L 2018,6408"/>
 <path fill="none" stroke="rgb(179,179,179)" stroke-linejoin="round" d="M 1868,4483 L 2018,4483"/>
 <path fill="none" stroke="rgb(179,179,179)" stroke-linejoin="round" d="M 1868,4483 L 2018,4483"/>
 <path fill="none" stroke="rgb(179,179,179)" stroke-linejoin="round" d="M 1868,2558 L 2018,2558"/>
 <path fill="none" stroke="rgb(179,179,179)" stroke-linejoin="round" d="M 1868,2558 L 2018,2558"/>
 <path fill="none" stroke="rgb(179,179,179)" stroke-linejoin="round" d="M 1868,633 L 2018,633"/>
 <path fill="none" stroke="rgb(179,179,179)" stroke-linejoin="round" d="M 1868,633 L 2018,633"/>
 <path fill="none" stroke="rgb(179,179,179)" stroke-linejoin="round" d="M 2018,14107 L 2018,633"/>
 <path fill="rgb(0,69,134)" stroke="none" d="M 22933,14107 L 25394,14107 25394,13876 22933,13876 22933,14107 Z"/>
 <path fill="rgb(0,69,134)" stroke="none" d="M 18012,14107 L 20473,14107 20473,9036 18012,9036 18012,14107 Z"/>
 <path fill="rgb(0,69,134)" stroke="none" d="M 13091,14107 L 15551,14107 15551,3836 13091,3836 13091,14107 Z"/>
 <path fill="rgb(0,69,134)" stroke="none" d="M 8169,14107 L 10630,14107 10630,13844 8169,13844 8169,14107 Z"/>
 <path fill="rgb(0,69,134)" stroke="none" d="M 3248,14107 L 5709,14107 5709,4260 3248,4260 3248,14107 Z"/>
 <path fill="rgb(255,66,14)" stroke="none" d="M 22933,13876 L 25394,13876 25394,13388 22933,13388 22933,13876 Z"/>
 <path fill="rgb(255,66,14)" stroke="none" d="M 18012,9036 L 20473,9036 20473,8547 18012,8547 18012,9036 Z"/>
 <path fill="rgb(255,66,14)" stroke="none" d="M 13091,3836 L 15551,3836 15551,3306 13091,3306 13091,3836 Z"/>
 <path fill="rgb(255,66,14)" stroke="none" d="M 8169,13844 L 10630,13844 10630,12466 8169,12466 8169,13844 Z"/>
 <path fill="rgb(255,66,14)" stroke="none" d="M 3248,4260 L 5709,4260 5709,2779 3248,2779 3248,4260 Z"/>
 <path fill="rgb(255,211,32)" stroke="none" d="M 22933,13388 L 25394,13388 25394,13231 22933,13231 22933,13388 Z"/>
 <path fill="rgb(255,211,32)" stroke="none" d="M 18012,8547 L 20473,8547 20473,8389 18012,8389 18012,8547 Z"/>
 <path fill="rgb(255,211,32)" stroke="none" d="M 13091,3306 L 15551,3306 15551,3082 13091,3082 13091,3306 Z"/>
 <path fill="rgb(255,211,32)" stroke="none" d="M 8169,12466 L 10630,12466 10630,12293 8169,12293 8169,12466 Z"/>
 <path fill="rgb(255,211,32)" stroke="none" d="M 3248,2779 L 5709,2779 5709,2547 3248,2547 3248,2779 Z"/>
 <path fill="rgb(87,157,28)" stroke="none" d="M 22933,13231 L 25394,13231 25394,13095 22933,13095 22933,13231 Z"/>
 <path fill="rgb(87,157,28)" stroke="none" d="M 18012,8389 L 20473,8389 20473,8244 18012,8244 18012,8389 Z"/>
 <path fill="rgb(87,157,28)" stroke="none" d="M 13091,3082 L 15551,3082 15551,2871 13091,2871 13091,3082 Z"/>
 <path fill="rgb(87,157,28)" stroke="none" d="M 8169,12293 L 10630,12293 10630,12136 8169,12136 8169,12293 Z"/>
 <path fill="rgb(87,157,28)" stroke="none" d="M 3248,2547 L 5709,2547 5709,2314 3248,2314 3248,2547 Z"/>
 <text class="TextShape"><tspan class="TextParagraph" font-family="Liberation Sans" font-size="353px" font-weight="400"><tspan class="TextPosition" x="3128" y="14675"><tspan fill="rgb(0,0,0)" stroke="none">4x A7 and 4x A15</tspan></tspan></tspan></text>
 <text class="TextShape"><tspan class="TextParagraph" font-family="Liberation Sans" font-size="353px" font-weight="400"><tspan class="TextPosition" x="8963" y="14675"><tspan fill="rgb(0,0,0)" stroke="none">4x A7</tspan></tspan></tspan></text>
 <text class="TextShape"><tspan class="TextParagraph" font-family="Liberation Sans" font-size="353px" font-weight="400"><tspan class="TextPosition" x="12972" y="14675"><tspan fill="rgb(0,0,0)" stroke="none">1x A7 and 4x A15</tspan></tspan></tspan></text>
 <text class="TextShape"><tspan class="TextParagraph" font-family="Liberation Sans" font-size="353px" font-weight="400"><tspan class="TextPosition" x="17893" y="14675"><tspan fill="rgb(0,0,0)" stroke="none">1x A7 and 1x A15</tspan></tspan></tspan></text>
 <text class="TextShape"><tspan class="TextParagraph" font-family="Liberation Sans" font-size="353px" font-weight="400"><tspan class="TextPosition" x="23728" y="14675"><tspan fill="rgb(0,0,0)" stroke="none">1x A7</tspan></tspan></tspan></text>
 <text class="TextShape"><tspan class="TextParagraph" font-family="Liberation Sans" font-size="353px" font-weight="400"><tspan class="TextPosition" x="1583" y="14228"><tspan fill="rgb(0,0,0)" stroke="none">0</tspan></tspan></tspan></text>
 <text class="TextShape"><tspan class="TextParagraph" font-family="Liberation Sans" font-size="353px" font-weight="400"><tspan class="TextPosition" x="1583" y="12303"><tspan fill="rgb(0,0,0)" stroke="none">1</tspan></tspan></tspan></text>
 <text class="TextShape"><tspan class="TextParagraph" font-family="Liberation Sans" font-size="353px" font-weight="400"><tspan class="TextPosition" x="1583" y="10378"><tspan fill="rgb(0,0,0)" stroke="none">2</tspan></tspan></tspan></text>
 <text class="TextShape"><tspan class="TextParagraph" font-family="Liberation Sans" font-size="353px" font-weight="400"><tspan class="TextPosition" x="1583" y="8453"><tspan fill="rgb(0,0,0)" stroke="none">3</tspan></tspan></tspan></text>
 <text class="TextShape"><tspan class="TextParagraph" font-family="Liberation Sans" font-size="353px" font-weight="400"><tspan class="TextPosition" x="1583" y="6528"><tspan fill="rgb(0,0,0)" stroke="none">4</tspan></tspan></tspan></text>
 <text class="TextShape"><tspan class="TextParagraph" font-family="Liberation Sans" font-size="353px" font-weight="400"><tspan class="TextPosition" x="1583" y="4603"><tspan fill="rgb(0,0,0)" stroke="none">5</tspan></tspan></tspan></text>
 <text class="TextShape"><tspan class="TextParagraph" font-family="Liberation Sans" font-size="353px" font-weight="400"><tspan class="TextPosition" x="1583" y="2678"><tspan fill="rgb(0,0,0)" stroke="none">6</tspan></tspan></tspan></text>
 <text class="TextShape"><tspan class="TextParagraph" font-family="Liberation Sans" font-size="353px" font-weight="400"><tspan class="TextPosition" x="1583" y="753"><tspan fill="rgb(0,0,0)" stroke="none">7</tspan></tspan></tspan></text>
 <path fill="rgb(0,69,134)" stroke="none" d="M 27431,8936 L 27325,8936 27325,8725 27536,8725 27536,8936 27431,8936 Z"/>
 <path fill="rgb(255,66,14)" stroke="none" d="M 27431,8438 L 27325,8438 27325,8227 27536,8227 27536,8438 27431,8438 Z"/>
 <path fill="rgb(255,211,32)" stroke="none" d="M 27431,7941 L 27325,7941 27325,7730 27536,7730 27536,7941 27431,7941 Z"/>
 <path fill="rgb(87,157,28)" stroke="none" d="M 27431,7443 L 27325,7443 27325,7232 27536,7232 27536,7443 27431,7443 Z"/>
 <text class="TextShape"><tspan class="TextParagraph" font-family="Liberation Sans" font-size="353px" font-weight="400"><tspan class="TextPosition" x="27636" y="7457"><tspan fill="rgb(0,0,0)" stroke="none">Memory</tspan></tspan></tspan></text>
 <text class="TextShape"><tspan class="TextParagraph" font-family="Liberation Sans" font-size="353px" font-weight="400"><tspan class="TextPosition" x="27636" y="7955"><tspan fill="rgb(0,0,0)" stroke="none">GPU</tspan></tspan></tspan></text>
 <text class="TextShape"><tspan class="TextParagraph" font-family="Liberation Sans" font-size="353px" font-weight="400"><tspan class="TextPosition" x="27636" y="8452"><tspan fill="rgb(0,0,0)" stroke="none">A7</tspan></tspan></tspan></text>
 <text class="TextShape"><tspan class="TextParagraph" font-family="Liberation Sans" font-size="353px" font-weight="400"><tspan class="TextPosition" x="27636" y="8950"><tspan fill="rgb(0,0,0)" stroke="none">A15</tspan></tspan></tspan></text>
 <text class="TextShape"><tspan class="TextParagraph" font-family="Liberation Sans" font-size="318px" font-weight="400"><tspan class="TextPosition" x="12834" y="15460"><tspan fill="rgb(0,0,0)" stroke="none">Active processors</tspan></tspan></tspan></text>
 <text class="TextShape"><tspan class="TextParagraph" font-family="Liberation Sans" font-size="318px" font-weight="400"><tspan class="TextPosition" x="824" y="7899" transform="translate(824,7899) rotate(-90) translate(-824,-7899)"><tspan fill="rgb(0,0,0)" stroke="none">Watt</tspan></tspan></tspan></text>
</svg>