<?xml version="1.0" encoding="UTF-8"?>
<!DOCTYPE svg PUBLIC "-//W3C//DTD SVG 1.1//EN" "http://www.w3.org/Graphics/SVG/1.1/DTD/svg11.dtd">
<svg width="292mm" height="159mm" viewBox="0 0 29200 15900" version="1.1" baseProfile="tiny" xmlns="http://www.w3.org/2000/svg" stroke-width="28.222" stroke-linejoin="round" xml:space="preserve">
 <path fill="rgb(255,255,255)" stroke="none" d="M 14584,15900 L 1,15900 1,-1 29167,-1 29167,15900 14584,15900 Z"/>
 <path fill="none" stroke="rgb(179,179,179)" stroke-linejoin="round" d="M 15493,13954 L 2402,13954 2402,516 28584,516 28584,13954 15493,13954 Z"/>
 <path fill="none" stroke="rgb(179,179,179)" stroke-linejoin="round" d="M 28584,13953 L 2402,13953"/>
 <path fill="none" stroke="rgb(179,179,179)" stroke-linejoin="round" d="M 28584,11265 L 2402,11265"/>
 <path fill="none" stroke="rgb(179,179,179)" stroke-linejoin="round" d="M 28584,8577 L 2402,8577"/>
 <path fill="none" stroke="rgb(179,179,179)" stroke-linejoin="round" d="M 28584,5890 L 2402,5890"/>
 <path fill="none" stroke="rgb(179,179,179)" stroke-linejoin="round" d="M 28584,3202 L 2402,3202"/>
 <path fill="none" stroke="rgb(179,179,179)" stroke-linejoin="round" d="M 28584,515 L 2402,515"/>
 <path fill="none" stroke="rgb(179,179,179)" stroke-linejoin="round" d="M 2402,14103 L 2402,13953"/>
 <path fill="none" stroke="rgb(179,179,179)" stroke-linejoin="round" d="M 2402,14103 L 2402,13953"/>
 <path fill="none" stroke="rgb(179,179,179)" stroke-linejoin="round" d="M 7638,14103 L 7638,13953"/>
 <path fill="none" stroke="rgb(179,179,179)" stroke-linejoin="round" d="M 7638,14103 L 7638,13953"/>
 <path fill="none" stroke="rgb(179,179,179)" stroke-linejoin="round" d="M 12875,14103 L 12875,13953"/>
 <path fill="none" stroke="rgb(179,179,179)" stroke-linejoin="round" d="M 12875,14103 L 12875,13953"/>
 <path fill="none" stroke="rgb(179,179,179)" stroke-linejoin="round" d="M 18110,14103 L 18110,13953"/>
 <path fill="none" stroke="rgb(179,179,179)" stroke-linejoin="round" d="M 18110,14103 L 18110,13953"/>
 <path fill="none" stroke="rgb(179,179,179)" stroke-linejoin="round" d="M 23347,14103 L 23347,13953"/>
 <path fill="none" stroke="rgb(179,179,179)" stroke-linejoin="round" d="M 23347,14103 L 23347,13953"/>
 <path fill="none" stroke="rgb(179,179,179)" stroke-linejoin="round" d="M 28584,14103 L 28584,13953"/>
 <path fill="none" stroke="rgb(179,179,179)" stroke-linejoin="round" d="M 28584,14103 L 28584,13953"/>
 <path fill="none" stroke="rgb(179,179,179)" stroke-linejoin="round" d="M 2402,13953 L 28584,13953"/>
 <path fill="none" stroke="rgb(179,179,179)" stroke-linejoin="round" d="M 2252,13953 L 2402,13953"/>
 <path fill="none" stroke="rgb(179,179,179)" stroke-linejoin="round" d="M 2252,13953 L 2402,13953"/>
 <path fill="none" stroke="rgb(179,179,179)" stroke-linejoin="round" d="M 2252,11265 L 2402,11265"/>
 <path fill="none" stroke="rgb(179,179,179)" stroke-linejoin="round" d="M 2252,11265 L 2402,11265"/>
 <path fill="none" stroke="rgb(179,179,179)" stroke-linejoin="round" d="M 2252,8577 L 2402,8577"/>
 <path fill="none" stroke="rgb(179,179,179)" stroke-linejoin="round" d="M 2252,8577 L 2402,8577"/>
 <path fill="none" stroke="rgb(179,179,179)" stroke-linejoin="round" d="M 2252,5890 L 2402,5890"/>
 <path fill="none" stroke="rgb(179,179,179)" stroke-linejoin="round" d="M 2252,5890 L 2402,5890"/>
 <path fill="none" stroke="rgb(179,179,179)" stroke-linejoin="round" d="M 2252,3202 L 2402,3202"/>
 <path fill="none" stroke="rgb(179,179,179)" stroke-linejoin="round" d="M 2252,3202 L 2402,3202"/>
 <path fill="none" stroke="rgb(179,179,179)" stroke-linejoin="round" d="M 2252,515 L 2402,515"/>
 <path fill="none" stroke="rgb(179,179,179)" stroke-linejoin="round" d="M 2252,515 L 2402,515"/>
 <path fill="none" stroke="rgb(179,179,179)" stroke-linejoin="round" d="M 2402,13953 L 2402,515"/>
 <path fill="rgb(0,69,134)" stroke="none" d="M 24656,13953 L 27274,13953 27274,1622 24656,1622 24656,13953 Z"/>
 <path fill="rgb(0,69,134)" stroke="none" d="M 19419,13953 L 22038,13953 22038,11742 19419,11742 19419,13953 Z"/>
 <path fill="rgb(0,69,134)" stroke="none" d="M 14184,13953 L 16801,13953 16801,13083 14184,13083 14184,13953 Z"/>
 <path fill="rgb(0,69,134)" stroke="none" d="M 8947,13953 L 11566,13953 11566,11363 8947,11363 8947,13953 Z"/>
 <path fill="rgb(0,69,134)" stroke="none" d="M 3711,13953 L 6329,13953 6329,13260 3711,13260 3711,13953 Z"/>
 <text class="TextShape"><tspan class="TextParagraph" font-family="Liberation Sans" font-size="353px" font-weight="400"><tspan class="TextPosition" x="3670" y="14521"><tspan fill="rgb(0,0,0)" stroke="none">4x A7 and 4x A15</tspan></tspan></tspan></text>
 <text class="TextShape"><tspan class="TextParagraph" font-family="Liberation Sans" font-size="353px" font-weight="400"><tspan class="TextPosition" x="9819" y="14521"><tspan fill="rgb(0,0,0)" stroke="none">4x A7</tspan></tspan></tspan></text>
 <text class="TextShape"><tspan class="TextParagraph" font-family="Liberation Sans" font-size="353px" font-weight="400"><tspan class="TextPosition" x="14143" y="14521"><tspan fill="rgb(0,0,0)" stroke="none">1x A7 and 4x A15</tspan></tspan></tspan></text>
 <text class="TextShape"><tspan class="TextParagraph" font-family="Liberation Sans" font-size="353px" font-weight="400"><tspan class="TextPosition" x="19380" y="14521"><tspan fill="rgb(0,0,0)" stroke="none">1x A7 and 1x A15</tspan></tspan></tspan></text>
 <text class="TextShape"><tspan class="TextParagraph" font-family="Liberation Sans" font-size="353px" font-weight="400"><tspan class="TextPosition" x="25529" y="14521"><tspan fill="rgb(0,0,0)" stroke="none">1x A7</tspan></tspan></tspan></text>
 <text class="TextShape"><tspan class="TextParagraph" font-family="Liberation Sans" font-size="353px" font-weight="400"><tspan class="TextPosition" x="1967" y="14074"><tspan fill="rgb(0,0,0)" stroke="none">0</tspan></tspan></tspan></text>
 <text class="TextShape"><tspan class="TextParagraph" font-family="Liberation Sans" font-size="353px" font-weight="400"><tspan class="TextPosition" x="1782" y="11386"><tspan fill="rgb(0,0,0)" stroke="none">50</tspan></tspan></tspan></text>
 <text class="TextShape"><tspan class="TextParagraph" font-family="Liberation Sans" font-size="353px" font-weight="400"><tspan class="TextPosition" x="1596" y="8698"><tspan fill="rgb(0,0,0)" stroke="none">100</tspan></tspan></tspan></text>
 <text class="TextShape"><tspan class="TextParagraph" font-family="Liberation Sans" font-size="353px" font-weight="400"><tspan class="TextPosition" x="1596" y="6010"><tspan fill="rgb(0,0,0)" stroke="none">150</tspan></tspan></tspan></text>
 <text class="TextShape"><tspan class="TextParagraph" font-family="Liberation Sans" font-size="353px" font-weight="400"><tspan class="TextPosition" x="1596" y="3322"><tspan fill="rgb(0,0,0)" stroke="none">200</tspan></tspan></tspan></text>
 <text class="TextShape"><tspan class="TextParagraph" font-family="Liberation Sans" font-size="353px" font-weight="400"><tspan class="TextPosition" x="1596" y="635"><tspan fill="rgb(0,0,0)" stroke="none">250</tspan></tspan></tspan></text>
 <text class="TextShape"><tspan class="TextParagraph" font-family="Liberation Sans" font-size="318px" font-weight="400"><tspan class="TextPosition" x="13820" y="15306"><tspan fill="rgb(0,0,0)" stroke="none">Active processors</tspan></tspan></tspan></text>
 <text class="TextShape"><tspan class="TextParagraph" font-family="Liberation Sans" font-size="318px" font-weight="400"><tspan class="TextPosition" x="838" y="8093" transform="translate(838,8093) rotate(-90) translate(-838,-8093)"><tspan fill="rgb(0,0,0)" stroke="none">Seconds</tspan></tspan></tspan></text>
</svg>